<svg id="Component_89_1" data-name="Component 89 – 1" xmlns="http://www.w3.org/2000/svg" xmlns:xlink="http://www.w3.org/1999/xlink" width="64" height="66" viewBox="0 0 64 66">
  <defs>
    <clipPath id="clip-path">
      <rect width="64" height="66" fill="none"/>
    </clipPath>
  </defs>
  <g id="Repeat_Grid_34" data-name="Repeat Grid 34" clip-path="url(#clip-path)">
    <g id="Path_154" data-name="Path 154" fill="#7db5ff" stroke-linecap="round">
      <path d="M 59.15151977539062 65.5 L 4.848490238189697 65.5 C 2.450720071792603 65.5 0.5 63.4813117980957 0.5 61 L 0.5 5 C 0.5 2.51869010925293 2.450720071792603 0.5 4.848490238189697 0.5 L 59.15151977539062 0.5 C 61.54927825927734 0.5 63.5 2.51869010925293 63.5 5 L 63.5 61 C 63.5 63.4813117980957 61.54927825927734 65.5 59.15151977539062 65.5 Z" stroke="none"/>
      <path d="M 4.848480224609375 1 C 2.726421356201172 1 1 2.794391632080078 1 5 L 1 61 C 1 63.20560836791992 2.726421356201172 65 4.848480224609375 65 L 59.15150833129883 65 C 61.2735710144043 65 63 63.20560836791992 63 61 L 63 5 C 63 2.794391632080078 61.2735710144043 1 59.15150833129883 1 L 4.848480224609375 1 M 4.848480224609375 0 L 59.15150833129883 0 C 61.82926177978516 0 64 2.238571166992188 64 5 L 64 61 C 64 63.76142120361328 61.82926177978516 66 59.15150833129883 66 L 4.848480224609375 66 C 2.170738220214844 66 0 63.76142120361328 0 61 L 0 5 C 0 2.238571166992188 2.170738220214844 0 4.848480224609375 0 Z" stroke="none" fill="#7db5ff"/>
    </g>
  </g>
</svg>
