<svg id="Group_16" data-name="Group 16" xmlns="http://www.w3.org/2000/svg" width="28.797" height="29.62" viewBox="0 0 28.797 29.62">
  <rect id="Rectangle_2" data-name="Rectangle 2" width="28.797" height="29.62" rx="14.399" fill="#e8e8e8"/>
  <path id="settings" d="M15.452,7.795,13.9,6.462a.9.9,0,0,1-.64-1.544l1.1-1.1a.548.548,0,0,0,0-.775l-1.4-1.4a.548.548,0,0,0-.775,0l-1.1,1.1A.9.9,0,0,1,9.538,2.1V.548A.548.548,0,0,0,8.99,0H7.009a.548.548,0,0,0-.548.548V2.1a.9.9,0,0,1-1.544.64l-1.1-1.1a.548.548,0,0,0-.775,0l-1.4,1.4a.548.548,0,0,0,0,.775l1.1,1.1A.9.9,0,0,1,2.1,6.462H.548A.548.548,0,0,0,0,7.01V8.991a.548.548,0,0,0,.548.548H2.1a.9.9,0,0,1,.64,1.544l-1.1,1.1a.548.548,0,0,0,0,.775l1.4,1.4a.548.548,0,0,0,.775,0l1.1-1.1a.9.9,0,0,1,1.544.64v1.554A.548.548,0,0,0,7.01,16H8.991a.548.548,0,0,0,.548-.548V13.9a.9.9,0,0,1,1.544-.64l1.1,1.1a.548.548,0,0,0,.775,0l1.4-1.4a.548.548,0,0,0,0-.775l-1.1-1.1a.9.9,0,0,1,.64-1.544h1.554A.548.548,0,0,0,16,8.99V7.009C16,6.707,15.755,7.795,15.452,7.795ZM8,10.462A2.462,2.462,0,1,1,10.462,8,2.462,2.462,0,0,1,8,10.462Z" transform="translate(7 7)" fill="#efae20" stroke="#efae20" stroke-width="1"/>
</svg>
