<svg height="512pt" viewBox="0 0 512.03076 512" width="512pt" xmlns="http://www.w3.org/2000/svg"><path d="m339.421875 459.050781-3.972656-375.261719c-32.101563-52.113281-88.949219-83.8320308-150.15625-83.773437-48.730469 0-101.605469 19.773437-133.5625 51.730469-33.164063 33.066406-51.7812502 77.988281-51.730469 124.820312v158.898438c0 97.542968 87.746094 176.550781 185.292969 176.550781 30.242187.042969 59.984375-7.742187 86.332031-22.597656l12.269531 12.269531c12.539063 12.503906 32.398438 13.789062 46.441407 3.003906 14.042968-10.785156 17.929687-30.300781 9.085937-45.640625zm-48.199219-246.554687v74.503906l-4.945312 80.597656c-2.777344 8.769532-6.695313 17.140625-11.652344 24.890625l-14.386719-14.386719c-13.796875-13.796874-36.167969-13.796874-49.964843 0-13.796876 13.796876-13.796876 36.167969 0 49.964844l8.03125 8.03125c-10.648438 3.53125-21.796876 5.316406-33.011719 5.296875-58.527344 0-114.671875-47.402343-114.671875-105.929687v-158.898438c0-58.527344 56.144531-105.929687 114.671875-105.929687 28.105469-.039063 55.070312 11.109375 74.945312 30.984375 19.871094 19.875 31.019531 46.839844 30.984375 74.945312zm0 0" fill="#e4c05c"/><path d="m465.214844 376.070312c52.613281-10.503906 46.609375-40.605468 46.609375-40.605468-26.484375-17.65625-26.484375-52.964844-26.484375-52.964844v-19.070312c0-32.21875 2.824218-66.117188-5.382813-97.632813-4.945312-18.800781-16.597656-43.34375-38.578125-45.195313h-105.929687c-22.070313 1.851563-33.632813 26.394532-38.578125 45.195313-8.207032 31.515625-5.382813 65.414063-5.382813 97.632813v19.070312s0 35.308594-26.484375 52.964844c0 0-6.003906 30.101562 46.609375 40.605468zm0 0" fill="#af8066"/><path d="m476.691406 423.738281v17.65625c0 9.75-7.90625 17.65625-17.65625 17.65625h-141.242187c-9.75 0-17.65625-7.90625-17.65625-17.65625v-17.65625c0-14.652343 19.773437-26.480469 44.140625-26.480469 24.363281 0 44.136718 11.828126 44.136718 26.480469 0-14.652343 19.773438-26.480469 44.136719-26.480469s44.140625 11.828126 44.140625 26.480469zm0 0" fill="#cc4b4c"/><path d="m476.691406 414.910156v8.828125c0-14.652343-19.777344-26.480469-44.140625-26.480469s-44.136719 11.828126-44.136719 26.480469c0-14.652343-19.773437-26.480469-44.136718-26.480469-24.367188 0-44.140625 11.828126-44.140625 26.480469v-8.828125h.179687c.882813-19.949218 4.851563-31.070312 11.296875-38.839844 7.679688-9.445312 18.980469-13.859374 32.664063-22.953124 16.859375-11.210938 22.949218-33.191407 25.15625-47.667969h37.960937c2.207031 14.476562 8.296875 36.457031 25.15625 47.667969 13.683594 9.09375 24.984375 13.507812 32.664063 22.953124 6.441406 7.769532 10.414062 18.890626 11.296875 38.839844zm0 0" fill="#f09372"/><path d="m441.378906 30.839844v97.175781c0 2.4375-1.976562 4.414063-4.414062 4.414063l-7.0625 1.28125c-27.433594 4.984374-55.542969 4.984374-82.976563 0l-7.0625-1.28125c-2.4375 0-4.414062-1.976563-4.414062-4.414063v-97.175781c0-1.832032 1.140625-3.472656 2.855469-4.121094 1.714843-.648438 3.65625-.167969 4.867187 1.210938 4.757813 4.800781 11.386719 42.707031 18.757813 42.707031 9.710937 0 18.230468-51.96875 22.828124-59.773438.792969-1.253906 2.171876-2.019531 3.65625-2.019531 1.484376 0 2.863282.765625 3.65625 2.019531 4.570313 7.804688 13.054688 59.773438 22.828126 59.773438 7.332031 0 13.964843-37.90625 18.757812-42.707031 1.210938-1.378907 3.152344-1.859376 4.867188-1.210938 1.714843.648438 2.851562 2.289062 2.855468 4.121094zm0 0" fill="#f3d55b"/><path d="m441.378906 171.535156v84.480469c0 29.25-23.714844 52.964844-52.964844 52.964844-29.253906 0-52.964843-23.714844-52.964843-52.964844v-84.480469zm0 0" fill="#fdd7ad"/><path d="m370.757812 264.84375c-4.875 0-8.828124-3.953125-8.828124-8.828125v-8.828125c0-4.875 3.953124-8.828125 8.828124-8.828125s8.828126 3.953125 8.828126 8.828125v8.828125c0 4.875-3.953126 8.828125-8.828126 8.828125zm0 0" fill="#35495e"/><path d="m406.070312 264.84375c-4.875 0-8.828124-3.953125-8.828124-8.828125v-8.828125c0-4.875 3.953124-8.828125 8.828124-8.828125s8.828126 3.953125 8.828126 8.828125v8.828125c0 4.875-3.953126 8.828125-8.828126 8.828125zm0 0" fill="#35495e"/><path d="m450.207031 229.53125c-44.136719 0-61.792969-44.136719-61.792969-44.136719s-17.65625 44.136719-61.792968 44.136719v-77.972656h123.585937zm0 0" fill="#af8066"/></svg>